<?xml version="1.0" standalone="no"?>
<!DOCTYPE svg PUBLIC "-//W3C//DTD SVG 20010904//EN"
 "http://www.w3.org/TR/2001/REC-SVG-20010904/DTD/svg10.dtd">
<svg version="1.0" xmlns="http://www.w3.org/2000/svg"
 width="260.000000pt" height="260.000000pt" viewBox="0 0 260.000000 260.000000"
 preserveAspectRatio="xMidYMid meet">
<metadata>
Created by potrace 1.11, written by Peter Selinger 2001-2013
</metadata>
<g transform="translate(0.000000,260.000000) scale(0.100000,-0.100000)"
fill="#000000" stroke="none">
<path d="M1237 2593 c-17 -4 -148 -79 -677 -386 -124 -71 -247 -142 -274 -156
-66 -34 -120 -91 -134 -139 -9 -28 -12 -203 -12 -618 0 -549 1 -581 20 -619
10 -22 27 -50 37 -62 29 -35 1018 -600 1064 -608 83 -14 108 -2 619 299 30 18
154 90 276 160 228 133 253 154 274 227 14 48 13 1172 -1 1222 -6 22 -25 54
-42 72 -27 29 -160 112 -347 217 -65 36 -86 49 -380 219 -146 85 -276 159
-290 165 -27 11 -103 15 -133 7z m120 -74 c18 -6 110 -56 205 -111 95 -56 194
-113 219 -127 274 -156 516 -301 536 -321 60 -60 58 -35 61 -638 2 -355 -1
-566 -8 -591 -19 -70 -55 -102 -235 -206 -93 -54 -305 -177 -470 -274 l-300
-175 -65 -1 -65 0 -450 259 c-542 311 -518 296 -552 349 l-28 42 0 575 0 576
35 48 c35 47 79 76 470 298 19 11 140 81 268 155 129 74 243 138 255 142 32
12 88 12 124 0z"/>
<path d="M1205 2434 c-16 -9 -140 -81 -275 -159 -135 -79 -261 -152 -280 -163
-310 -176 -331 -191 -361 -257 -17 -37 -19 -75 -19 -555 0 -480 2 -518 19
-555 10 -22 31 -52 47 -66 16 -15 202 -127 414 -250 519 -300 479 -279 542
-279 63 0 71 4 316 148 96 56 175 102 178 102 2 0 27 15 56 33 29 19 126 75
215 126 174 100 225 143 243 210 7 26 10 215 10 544 l-1 504 -25 51 c-25 50
-51 72 -154 130 -19 11 -87 50 -150 87 -63 37 -130 76 -149 87 -18 10 -130 76
-250 145 -209 123 -218 127 -281 130 -47 2 -73 -1 -95 -13z m240 -539 c100
-20 187 -77 230 -149 67 -114 72 -377 9 -498 -9 -16 -34 -50 -56 -74 -29 -31
-38 -48 -31 -56 9 -11 58 -104 165 -307 29 -57 29 -85 0 -108 -22 -18 -256
-18 -269 0 -6 6 -49 89 -98 182 -48 94 -91 175 -96 182 -12 14 -94 10 -114 -7
-12 -10 -15 -42 -15 -175 0 -205 6 -197 -152 -199 -96 -1 -115 1 -130 16 -17
17 -18 57 -18 596 0 317 4 582 8 588 4 6 14 13 22 16 24 8 500 2 545 -7z"/>
<path d="M1186 1591 c-22 -24 -23 -183 -1 -201 18 -15 168 -16 206 -2 31 12
47 58 43 126 -4 78 -24 91 -139 92 -77 2 -97 -1 -109 -15z"/>
</g>
</svg>
