<svg xmlns="http://www.w3.org/2000/svg" width="230" height="260" viewBox="0 0 230 260">
  <path class="svg-logo-path svg-logo-path-rotate" d="M221 57.8L125.3 2.3c-5.3-3.1-13.9-3.1-19.2 0L9.9 57.8C4.5 60.8 0 68.4 0 74.6v110.9c0 6.2 4.6 13.7 10 16.8l96.2 55.4c5.3 3.1 14.1 3.1 19.5 0l95.4-55.4c5.3-3.1 9-10.6 9-16.8V74.6c-.1-6.2-3.8-13.8-9.1-16.8zm3 124.1c0 6.2-3.8 13.7-9.1 16.8l-89.5 51.9c-5.3 3.1-13.9 3.1-19.2 0L16 198.7c-5.3-3.1-10-10.6-10-16.8V78.1c0-6.2 4.7-13.7 10.1-16.8l90-51.9c5.3-3.1 14.2-3.1 19.5 0l89.3 51.9c5.3 3.1 9.1 10.6 9.1 16.8v103.8z"/>
  <path class="svg-logo-path" d="M117.1 99.3h-8.9c-3.1 0-5.2 1.9-5.2 5v12.9c0 3.1 2.1 5 5.2 5h8.9c8.4 0 12.5-.7 12.5-11.5.1-10.7-4.1-11.4-12.5-11.4z"/>
  <path class="svg-logo-path" d="M207.6 65.2l-82.7-48.1c-5.3-3.1-13.9-3.1-19.2 0L22.8 65.2c-5.3 3-9.8 10.6-9.8 16.7V178c0 6.2 4.5 13.7 9.8 16.8l82.9 48.1c5.3 3.1 14 3.1 19.3 0l82.6-48.1c5.3-3.1 9.4-10.6 9.4-16.8V81.9c0-6.1-4.1-13.7-9.4-16.7zm-49.4 126.1h-19.8c-1.7 0-3.3-1-4-2.5l-18.1-35.3c-.3-.5-.9-1.1-1.4-1.1H108c-3.1 0-5 2.7-5 5.8v27.6c0 3.1-2.7 5.6-5.8 5.6H77.8c-3.1 0-4.8-2.4-4.8-5.6V74.3c0-3.1 1.6-5 4.8-5h38c30.9 0 43.4 13.1 43.4 41.7 0 16.2-4 27.5-13.2 34.1-.7.5-.9 1.3-.5 2.2l18.4 34.5c2.4 4.5-.4 9.5-5.7 9.5z"/>
</svg>
